<svg width="245" height="68" viewBox="0 0 245 68" fill="none" xmlns="http://www.w3.org/2000/svg">
<g opacity="0.85">
<path d="M43.9982 49.3965C41.6648 41.8178 38.9667 40.3908 35.699 39.0964C43.4103 36.9559 49.4444 31.3348 49.4444 21.117C49.449 3.37542 35.7901 0 28.9037 0C18.6323 0 0 0.126627 0 0.126627C0 0.126627 0 11.0508 0 14.8007C0 26.2167 0 26.2167 0 65.4275H16.3159C15.1355 63.8495 14.4108 60.8126 14.3243 54.4139C14.2878 51.505 14.3243 41.5342 14.3243 41.5342C18.7997 41.5342 24.4784 41.4656 27.5182 45.2801C30.2163 48.6647 32.5406 55.1823 35.7081 65.5601H53.569C49.4444 62.6604 46.8421 58.6309 43.9982 49.3965ZM23.9953 30.8865C19.5244 30.8865 14.3151 30.8865 14.3151 30.8865C14.3151 30.8865 14.3243 14.9836 14.3243 11.7957C14.3243 11.7957 20.5088 11.7957 23.9953 11.7957C30.271 11.7957 35.6762 13.6892 35.6762 20.6642C35.6716 27.6392 31.4742 30.8865 23.9953 30.8865Z" fill="white"></path>
<path d="M244.439 41.9135C244.378 33.1253 240.495 24.3508 233.038 20.0992C222.997 14.3814 207.438 15.4799 199.582 24.7691C190.12 35.9566 192.484 56.5942 205.368 63.8013C215.369 69.395 230.753 68.3149 238.596 59.1452C242.566 54.5167 244.483 48.2151 244.439 41.9135ZM219.128 55.6244C216.224 55.5922 213.285 54.1811 211.32 51.3957C209.583 48.9321 208.723 45.5492 208.719 41.9135C208.723 38.2732 209.579 34.8903 211.32 32.4312C213.285 29.6458 216.224 28.2393 219.128 28.2026C222.032 28.2348 224.967 29.6458 226.936 32.4312C228.674 34.8949 229.533 38.2778 229.538 41.9135C229.533 45.5538 228.678 48.9367 226.936 51.3957C224.971 54.1811 222.032 55.5922 219.128 55.6244Z" fill="white"></path>
<path d="M174.586 55.0821C169.313 55.0821 161.608 51.3815 161.608 41.9086C161.608 32.4357 169.313 28.7351 174.586 28.7351C178.739 28.7351 183.497 30.0493 186.799 32.276C186.799 32.276 188.12 28.0187 191.328 22.6252C186.342 18.6188 178.39 16.5974 172.059 16.5974C160.622 16.5974 146.515 23.3416 146.515 41.9086C146.515 60.4756 160.622 67.2198 172.059 67.2198C178.39 67.2198 186.342 65.1984 191.328 61.192C188.12 55.7985 186.799 51.5412 186.799 51.5412C183.497 53.7679 178.739 55.0821 174.586 55.0821Z" fill="white"></path>
<path d="M120.958 55.3258C131.937 49.8742 141.544 44.2959 142.097 33.9764C142.412 28.1357 140.114 23.0506 136.067 20.1732C127.953 14.4049 115.051 15.9205 107.467 22.5303C99.8329 29.1853 98.1471 37.8219 99.472 47.2321C99.6775 48.6798 100.459 50.7836 100.865 52.1182C95.881 54.1088 88.8591 55.9999 82.8376 56.389C79.4021 56.6107 75.9984 56.0949 73.0197 55.0815C73.0197 55.0815 82.5955 51.3129 88.553 46.2413C97.2882 38.8081 95.945 25.1679 88.9139 20.1732C80.8 14.4049 67.8983 15.9205 60.3144 22.5303C52.6803 29.1853 50.9944 37.8219 52.3193 47.2321C53.3564 54.611 56.9519 60.6281 63.7865 63.9488C68.8166 66.3919 73.6502 67.2062 81.1016 67.2062C92.4774 67.2062 102.282 62.7544 106.727 61.2162C107.97 62.2568 114.722 67.2198 124.791 67.2198C131.174 67.2198 139.607 66.3964 146.515 62.0034C144.491 58.9858 142.961 55.6742 142.106 52.3037C137.72 54.7784 129.264 57.7915 120.958 55.3258ZM69.2917 31.66C71.5486 28.5022 76.3731 26.0591 80.0279 28.475C83.8473 31.004 82.1615 35.1843 80.101 37.5459C76.3959 41.776 71.6857 43.7757 66.7242 45.7482C66.4226 43.2825 66.1485 36.062 69.2917 31.66ZM116.449 31.66C118.706 28.5022 123.53 26.0591 127.185 28.475C131.005 31.004 129.602 36.0529 127.537 38.41C123.832 42.6401 119.227 44.6941 114.265 46.6666C113.123 42.5768 113.301 36.062 116.449 31.66Z" fill="white"></path>
</g>
</svg>