<svg width="143" height="40" viewBox="0 0 143 40" fill="none" xmlns="http://www.w3.org/2000/svg">
<path d="M25.9422 29.1466C24.5867 24.744 23.0193 23.915 21.1211 23.1631C25.6007 21.9196 29.1061 18.6542 29.1061 12.7185C29.1087 2.41202 21.174 0.451172 17.1736 0.451172C11.2067 0.451172 0.382812 0.524732 0.382812 0.524732C0.382812 0.524732 0.382812 6.87081 0.382812 9.04916C0.382812 15.681 0.382812 15.681 0.382812 38.4593H9.86103C9.17532 37.5426 8.75436 35.7784 8.70406 32.0613C8.68288 30.3714 8.70406 24.5792 8.70406 24.5792C11.3039 24.5792 14.6028 24.5394 16.3687 26.7553C17.9361 28.7215 19.2863 32.5077 21.1264 38.5363H31.5021C29.1061 36.8518 27.5943 34.511 25.9422 29.1466ZM14.3222 18.3938C11.7249 18.3938 8.69876 18.3938 8.69876 18.3938C8.69876 18.3938 8.70406 9.15544 8.70406 7.30353C8.70406 7.30353 12.2968 7.30353 14.3222 7.30353C17.9678 7.30353 21.1078 8.40352 21.1078 12.4554C21.1052 16.5073 18.6668 18.3938 14.3222 18.3938Z" fill="#2BCC89"></path>
<path d="M142.384 24.7994C142.348 19.6941 140.093 14.5969 135.761 12.127C129.928 8.80543 120.889 9.44359 116.325 14.8399C110.829 21.3389 112.202 33.3277 119.686 37.5144C125.496 40.764 134.433 40.1365 138.989 34.8096C141.296 32.1208 142.409 28.4601 142.384 24.7994ZM127.68 32.7643C125.993 32.7456 124.286 31.9259 123.144 30.3078C122.135 28.8766 121.636 26.9114 121.633 24.7994C121.636 22.6847 122.133 20.7195 123.144 19.2909C124.286 17.6729 125.993 16.8558 127.68 16.8344C129.367 16.8531 131.072 17.6729 132.216 19.2909C133.225 20.7221 133.725 22.6873 133.727 24.7994C133.725 26.9141 133.228 28.8793 132.216 30.3078C131.074 31.9259 129.367 32.7456 127.68 32.7643Z" fill="#2BCC89"></path>
<path d="M101.803 32.4493C98.7403 32.4493 94.2639 30.2995 94.2639 24.7965C94.2639 19.2936 98.7403 17.1438 101.803 17.1438C104.216 17.1438 106.98 17.9072 108.898 19.2008C108.898 19.2008 109.666 16.7276 111.529 13.5944C108.632 11.2671 104.013 10.0928 100.336 10.0928C93.6914 10.0928 85.4961 14.0106 85.4961 24.7965C85.4961 35.5825 93.6914 39.5003 100.336 39.5003C104.013 39.5003 108.632 38.326 111.529 35.9987C109.666 32.8655 108.898 30.3923 108.898 30.3923C106.98 31.6859 104.216 32.4493 101.803 32.4493Z" fill="#2BCC89"></path>
<path d="M70.649 32.5909C77.0266 29.4239 82.6079 26.1834 82.9291 20.1886C83.1122 16.7956 81.7772 13.8415 79.4258 12.17C74.7123 8.81911 67.2174 9.69955 62.8118 13.5393C58.3769 17.4053 57.3976 22.4225 58.1673 27.8891C58.2867 28.7301 58.7405 29.9522 58.9767 30.7275C56.0812 31.8839 52.002 32.9825 48.5041 33.2085C46.5083 33.3373 44.531 33.0377 42.8006 32.4489C42.8006 32.4489 48.3634 30.2597 51.8242 27.3135C56.8987 22.9954 56.1184 15.0715 52.0339 12.17C47.3204 8.81911 39.8255 9.69955 35.4199 13.5393C30.985 17.4053 30.0057 22.4225 30.7754 27.8891C31.3778 32.1756 33.4665 35.6711 37.4369 37.6001C40.359 39.0194 43.1669 39.4924 47.4956 39.4924C54.104 39.4924 59.7995 36.9063 62.3818 36.0127C63.1037 36.6172 67.0263 39.5003 72.8757 39.5003C76.5833 39.5003 81.4826 39.022 85.4955 36.47C84.3197 34.717 83.4307 32.7932 82.9344 30.8352C80.3865 32.2729 75.474 34.0232 70.649 32.5909ZM40.635 18.8429C41.946 17.0085 44.7487 15.5893 46.8719 16.9927C49.0906 18.4618 48.1113 20.8903 46.9143 22.2622C44.7619 24.7195 42.0257 25.8812 39.1434 27.027C38.9683 25.5947 38.809 21.4001 40.635 18.8429ZM68.0295 18.8429C69.3406 17.0085 72.1432 15.5893 74.2664 16.9927C76.4852 18.4618 75.6704 21.3949 74.4708 22.7642C72.3184 25.2215 69.6432 26.4147 66.7609 27.5606C66.0974 25.1847 66.2009 21.4001 68.0295 18.8429Z" fill="#2BCC89"></path>
</svg>